<svg width="40" height="40" viewBox="0 0 40 40" fill="none" xmlns="http://www.w3.org/2000/svg">
<path d="M20 0.799896C9.396 0.799896 0.800001 9.3959 0.800001 19.9999C0.800001 30.6039 9.396 39.1999 20 39.1999C30.604 39.1999 39.2 30.6039 39.2 19.9999C39.2 9.3959 30.604 0.799896 20 0.799896ZM21.314 24.5499C20.082 24.4559 19.566 23.8459 18.602 23.2619C18.072 26.0439 17.424 28.7119 15.504 30.1059C14.91 25.8979 16.372 22.7419 17.052 19.3879C15.894 17.4379 17.19 13.5159 19.634 14.4799C22.64 15.6719 17.03 21.7299 20.796 22.4879C24.728 23.2759 26.334 15.6639 23.896 13.1919C20.372 9.6179 13.642 13.1099 14.47 18.2259C14.67 19.4759 15.964 19.8559 14.986 21.5819C12.732 21.0819 12.058 19.3039 12.146 16.9339C12.284 13.0539 15.632 10.3359 18.988 9.9619C23.234 9.4899 27.218 11.5199 27.77 15.5159C28.388 20.0239 25.852 24.9019 21.314 24.5499Z" fill="black"/>
</svg>
